<mxfile host="app.diagrams.net" agent="Mozilla/5.0 (Windows NT 10.0; Win64; x64) AppleWebKit/537.36 (KHTML, like Gecko) Chrome/134.0.0.0 Safari/537.36 OPR/119.0.0.0" version="27.1.6">
  <diagram name="Page-1" id="2a216829-ef6e-dabb-86c1-c78162f3ba2b">
    <mxGraphModel grid="0" page="0" gridSize="10" guides="1" tooltips="1" connect="1" arrows="1" fold="1" pageScale="1" pageWidth="850" pageHeight="1100" background="none" math="0" shadow="0">
      <root>
        <mxCell id="0" />
        <mxCell id="1" parent="0" />
        <mxCell id="YMydah748aIOiDVq2uRC-39" value="Cliente" style="swimlane" vertex="1" parent="1">
          <mxGeometry x="170" y="20" width="1600" height="220" as="geometry" />
        </mxCell>
        <mxCell id="YMydah748aIOiDVq2uRC-41" value="Publicar solicitação de envio" style="rounded=1;" vertex="1" parent="YMydah748aIOiDVq2uRC-39">
          <mxGeometry x="115" y="68.5" width="200" height="50" as="geometry" />
        </mxCell>
        <mxCell id="YMydah748aIOiDVq2uRC-42" value="Receber entregador" style="rounded=1;" vertex="1" parent="YMydah748aIOiDVq2uRC-39">
          <mxGeometry x="660" y="71" width="140" height="50" as="geometry" />
        </mxCell>
        <mxCell id="YMydah748aIOiDVq2uRC-212" style="edgeStyle=orthogonalEdgeStyle;rounded=0;orthogonalLoop=1;jettySize=auto;html=1;fontFamily=Helvetica;fontSize=12;fontColor=default;" edge="1" parent="YMydah748aIOiDVq2uRC-39" source="YMydah748aIOiDVq2uRC-43" target="YMydah748aIOiDVq2uRC-199">
          <mxGeometry relative="1" as="geometry" />
        </mxCell>
        <mxCell id="YMydah748aIOiDVq2uRC-43" value="Entregar item" style="rounded=1;" vertex="1" parent="YMydah748aIOiDVq2uRC-39">
          <mxGeometry x="830" y="68.5" width="120" height="50" as="geometry" />
        </mxCell>
        <mxCell id="YMydah748aIOiDVq2uRC-46" style="endArrow=block;exitX=1;exitY=0.5;exitDx=0;exitDy=0;" edge="1" parent="YMydah748aIOiDVq2uRC-39" source="YMydah748aIOiDVq2uRC-79" target="YMydah748aIOiDVq2uRC-41">
          <mxGeometry relative="1" as="geometry">
            <mxPoint x="80" y="95" as="sourcePoint" />
          </mxGeometry>
        </mxCell>
        <mxCell id="YMydah748aIOiDVq2uRC-47" style="endArrow=block;entryX=0;entryY=0.5;entryDx=0;entryDy=0;entryPerimeter=0;" edge="1" parent="YMydah748aIOiDVq2uRC-39" source="YMydah748aIOiDVq2uRC-41" target="YMydah748aIOiDVq2uRC-89">
          <mxGeometry relative="1" as="geometry">
            <mxPoint x="460" y="92.52777777777783" as="targetPoint" />
          </mxGeometry>
        </mxCell>
        <mxCell id="YMydah748aIOiDVq2uRC-48" style="endArrow=block;" edge="1" parent="YMydah748aIOiDVq2uRC-39" source="YMydah748aIOiDVq2uRC-42" target="YMydah748aIOiDVq2uRC-43">
          <mxGeometry relative="1" as="geometry" />
        </mxCell>
        <mxCell id="YMydah748aIOiDVq2uRC-79" value="" style="ellipse;whiteSpace=wrap;html=1;rounded=1;" vertex="1" parent="YMydah748aIOiDVq2uRC-39">
          <mxGeometry x="30" y="73.5" width="45" height="45" as="geometry" />
        </mxCell>
        <mxCell id="YMydah748aIOiDVq2uRC-89" value="" style="points=[[0.145,0.145,0],[0.5,0,0],[0.855,0.145,0],[1,0.5,0],[0.855,0.855,0],[0.5,1,0],[0.145,0.855,0],[0,0.5,0]];shape=mxgraph.bpmn.event;html=1;verticalLabelPosition=bottom;labelBackgroundColor=#ffffff;verticalAlign=top;align=center;perimeter=ellipsePerimeter;outlineConnect=0;aspect=fixed;outline=standard;symbol=message;" vertex="1" parent="YMydah748aIOiDVq2uRC-39">
          <mxGeometry x="350" y="70" width="50" height="50" as="geometry" />
        </mxCell>
        <mxCell id="YMydah748aIOiDVq2uRC-140" value="Entregador encontrado" style="points=[[0.25,0,0],[0.5,0,0],[0.75,0,0],[1,0.25,0],[1,0.5,0],[1,0.75,0],[0.75,1,0],[0.5,1,0],[0.25,1,0],[0,0.75,0],[0,0.5,0],[0,0.25,0]];shape=mxgraph.bpmn.task2;whiteSpace=wrap;rectStyle=rounded;size=10;html=1;container=1;expand=0;collapsible=0;taskMarker=send;rounded=1;strokeColor=default;align=center;verticalAlign=middle;fontFamily=Helvetica;fontSize=12;fontColor=default;fillColor=default;" vertex="1" parent="YMydah748aIOiDVq2uRC-39">
          <mxGeometry x="460" y="68.5" width="120" height="56" as="geometry" />
        </mxCell>
        <mxCell id="YMydah748aIOiDVq2uRC-183" value="Avaliar entregador" style="points=[[0.25,0,0],[0.5,0,0],[0.75,0,0],[1,0.25,0],[1,0.5,0],[1,0.75,0],[0.75,1,0],[0.5,1,0],[0.25,1,0],[0,0.75,0],[0,0.5,0],[0,0.25,0]];shape=mxgraph.bpmn.task2;whiteSpace=wrap;rectStyle=rounded;size=10;html=1;container=1;expand=0;collapsible=0;taskMarker=send;rounded=1;strokeColor=default;align=center;verticalAlign=middle;fontFamily=Helvetica;fontSize=12;fontColor=default;fillColor=default;" vertex="1" parent="YMydah748aIOiDVq2uRC-39">
          <mxGeometry x="1180" y="62.5" width="120" height="56" as="geometry" />
        </mxCell>
        <mxCell id="YMydah748aIOiDVq2uRC-199" value="" style="points=[[0.25,0.25,0],[0.5,0,0],[0.75,0.25,0],[1,0.5,0],[0.75,0.75,0],[0.5,1,0],[0.25,0.75,0],[0,0.5,0]];shape=mxgraph.bpmn.gateway2;html=1;verticalLabelPosition=bottom;labelBackgroundColor=#ffffff;verticalAlign=top;align=center;perimeter=rhombusPerimeter;outlineConnect=0;outline=none;symbol=none;gwType=parallel;rounded=1;strokeColor=default;fontFamily=Helvetica;fontSize=12;fontColor=default;fillColor=default;" vertex="1" parent="YMydah748aIOiDVq2uRC-39">
          <mxGeometry x="980" y="68.5" width="50" height="50" as="geometry" />
        </mxCell>
        <mxCell id="YMydah748aIOiDVq2uRC-51" value="Sistema" style="swimlane" vertex="1" parent="1">
          <mxGeometry x="170" y="240" width="1600" height="220" as="geometry" />
        </mxCell>
        <mxCell id="YMydah748aIOiDVq2uRC-52" value="Receber solicitação" style="rounded=1;" vertex="1" parent="YMydah748aIOiDVq2uRC-51">
          <mxGeometry x="70" y="70" width="160" height="50" as="geometry" />
        </mxCell>
        <mxCell id="YMydah748aIOiDVq2uRC-53" value="Buscar entregadores disponíveis" style="rounded=1;" vertex="1" parent="YMydah748aIOiDVq2uRC-51">
          <mxGeometry x="270" y="70" width="200" height="50" as="geometry" />
        </mxCell>
        <mxCell id="YMydah748aIOiDVq2uRC-55" value="Rastrear entrega" style="rounded=1;" vertex="1" parent="YMydah748aIOiDVq2uRC-51">
          <mxGeometry x="810" y="70" width="160" height="50" as="geometry" />
        </mxCell>
        <mxCell id="YMydah748aIOiDVq2uRC-186" value="" style="edgeStyle=orthogonalEdgeStyle;rounded=0;orthogonalLoop=1;jettySize=auto;html=1;fontFamily=Helvetica;fontSize=12;fontColor=default;" edge="1" parent="YMydah748aIOiDVq2uRC-51" source="YMydah748aIOiDVq2uRC-56" target="YMydah748aIOiDVq2uRC-188">
          <mxGeometry relative="1" as="geometry">
            <mxPoint x="1400" y="95" as="targetPoint" />
          </mxGeometry>
        </mxCell>
        <mxCell id="YMydah748aIOiDVq2uRC-56" value="Registrar histórico" style="rounded=1;" vertex="1" parent="YMydah748aIOiDVq2uRC-51">
          <mxGeometry x="1170" y="70" width="160" height="50" as="geometry" />
        </mxCell>
        <mxCell id="YMydah748aIOiDVq2uRC-57" style="endArrow=block;" edge="1" parent="YMydah748aIOiDVq2uRC-51" source="YMydah748aIOiDVq2uRC-52" target="YMydah748aIOiDVq2uRC-53">
          <mxGeometry relative="1" as="geometry" />
        </mxCell>
        <mxCell id="YMydah748aIOiDVq2uRC-92" value="" style="endArrow=block;" edge="1" parent="YMydah748aIOiDVq2uRC-51" source="YMydah748aIOiDVq2uRC-53" target="YMydah748aIOiDVq2uRC-91">
          <mxGeometry relative="1" as="geometry">
            <mxPoint x="780" y="345" as="sourcePoint" />
            <mxPoint x="880" y="345" as="targetPoint" />
          </mxGeometry>
        </mxCell>
        <mxCell id="YMydah748aIOiDVq2uRC-91" value="" style="points=[[0.145,0.145,0],[0.5,0,0],[0.855,0.145,0],[1,0.5,0],[0.855,0.855,0],[0.5,1,0],[0.145,0.855,0],[0,0.5,0]];shape=mxgraph.bpmn.event;html=1;verticalLabelPosition=bottom;labelBackgroundColor=#ffffff;verticalAlign=top;align=center;perimeter=ellipsePerimeter;outlineConnect=0;aspect=fixed;outline=standard;symbol=message;" vertex="1" parent="YMydah748aIOiDVq2uRC-51">
          <mxGeometry x="510" y="70" width="50" height="50" as="geometry" />
        </mxCell>
        <mxCell id="YMydah748aIOiDVq2uRC-188" value="" style="points=[[0.145,0.145,0],[0.5,0,0],[0.855,0.145,0],[1,0.5,0],[0.855,0.855,0],[0.5,1,0],[0.145,0.855,0],[0,0.5,0]];shape=mxgraph.bpmn.event;html=1;verticalLabelPosition=bottom;labelBackgroundColor=#ffffff;verticalAlign=top;align=center;perimeter=ellipsePerimeter;outlineConnect=0;aspect=fixed;outline=end;symbol=terminate2;rounded=1;strokeColor=default;fontFamily=Helvetica;fontSize=12;fontColor=default;fillColor=default;" vertex="1" parent="YMydah748aIOiDVq2uRC-51">
          <mxGeometry x="1400" y="70" width="50" height="50" as="geometry" />
        </mxCell>
        <mxCell id="YMydah748aIOiDVq2uRC-195" value="&lt;span style=&quot;text-wrap-mode: nowrap;&quot;&gt;Gerar contrato (blockchain)&lt;/span&gt;" style="points=[[0.25,0,0],[0.5,0,0],[0.75,0,0],[1,0.25,0],[1,0.5,0],[1,0.75,0],[0.75,1,0],[0.5,1,0],[0.25,1,0],[0,0.75,0],[0,0.5,0],[0,0.25,0]];shape=mxgraph.bpmn.task2;whiteSpace=wrap;rectStyle=rounded;size=10;html=1;container=1;expand=0;collapsible=0;taskMarker=send;rounded=1;strokeColor=default;align=center;verticalAlign=middle;fontFamily=Helvetica;fontSize=12;fontColor=default;fillColor=default;" vertex="1" parent="YMydah748aIOiDVq2uRC-51">
          <mxGeometry x="610" y="64" width="160" height="56" as="geometry" />
        </mxCell>
        <mxCell id="YMydah748aIOiDVq2uRC-237" value="" style="points=[[0.25,0.25,0],[0.5,0,0],[0.75,0.25,0],[1,0.5,0],[0.75,0.75,0],[0.5,1,0],[0.25,0.75,0],[0,0.5,0]];shape=mxgraph.bpmn.gateway2;html=1;verticalLabelPosition=bottom;labelBackgroundColor=#ffffff;verticalAlign=top;align=center;perimeter=rhombusPerimeter;outlineConnect=0;outline=none;symbol=none;gwType=parallel;rounded=1;strokeColor=default;fontFamily=Helvetica;fontSize=12;fontColor=default;fillColor=default;" vertex="1" parent="YMydah748aIOiDVq2uRC-51">
          <mxGeometry x="1080" y="70" width="50" height="50" as="geometry" />
        </mxCell>
        <mxCell id="YMydah748aIOiDVq2uRC-254" style="edgeStyle=orthogonalEdgeStyle;rounded=0;orthogonalLoop=1;jettySize=auto;html=1;entryX=0;entryY=0.5;entryDx=0;entryDy=0;entryPerimeter=0;fontFamily=Helvetica;fontSize=12;fontColor=default;" edge="1" parent="YMydah748aIOiDVq2uRC-51" source="YMydah748aIOiDVq2uRC-55" target="YMydah748aIOiDVq2uRC-237">
          <mxGeometry relative="1" as="geometry" />
        </mxCell>
        <mxCell id="YMydah748aIOiDVq2uRC-61" value="Entregador" style="swimlane" vertex="1" parent="1">
          <mxGeometry x="170" y="460" width="1600" height="220" as="geometry" />
        </mxCell>
        <mxCell id="YMydah748aIOiDVq2uRC-95" style="edgeStyle=orthogonalEdgeStyle;rounded=0;orthogonalLoop=1;jettySize=auto;html=1;entryX=0;entryY=0.25;entryDx=0;entryDy=0;" edge="1" parent="YMydah748aIOiDVq2uRC-61" source="YMydah748aIOiDVq2uRC-138" target="YMydah748aIOiDVq2uRC-94">
          <mxGeometry relative="1" as="geometry">
            <mxPoint x="460" y="120" as="sourcePoint" />
            <mxPoint x="480" y="150" as="targetPoint" />
            <Array as="points">
              <mxPoint x="455" y="163" />
              <mxPoint x="480" y="163" />
            </Array>
          </mxGeometry>
        </mxCell>
        <mxCell id="YMydah748aIOiDVq2uRC-64" value="Aceitar entrega" style="rounded=1;" vertex="1" parent="YMydah748aIOiDVq2uRC-61">
          <mxGeometry x="500" y="70" width="130" height="50" as="geometry" />
        </mxCell>
        <mxCell id="YMydah748aIOiDVq2uRC-65" value="Coletar item" style="rounded=1;" vertex="1" parent="YMydah748aIOiDVq2uRC-61">
          <mxGeometry x="740" y="70" width="120" height="50" as="geometry" />
        </mxCell>
        <mxCell id="YMydah748aIOiDVq2uRC-177" style="edgeStyle=orthogonalEdgeStyle;rounded=0;orthogonalLoop=1;jettySize=auto;html=1;fontFamily=Helvetica;fontSize=12;fontColor=default;entryX=0;entryY=0.5;entryDx=0;entryDy=0;entryPerimeter=0;" edge="1" parent="YMydah748aIOiDVq2uRC-61" source="YMydah748aIOiDVq2uRC-66" target="YMydah748aIOiDVq2uRC-181">
          <mxGeometry relative="1" as="geometry">
            <mxPoint x="1180" y="95" as="targetPoint" />
          </mxGeometry>
        </mxCell>
        <mxCell id="YMydah748aIOiDVq2uRC-66" value="Realizar entrega" style="rounded=1;" vertex="1" parent="YMydah748aIOiDVq2uRC-61">
          <mxGeometry x="880" y="70" width="140" height="50" as="geometry" />
        </mxCell>
        <mxCell id="YMydah748aIOiDVq2uRC-69" style="endArrow=block;" edge="1" parent="YMydah748aIOiDVq2uRC-61" source="YMydah748aIOiDVq2uRC-193" target="YMydah748aIOiDVq2uRC-138">
          <mxGeometry relative="1" as="geometry">
            <mxPoint x="400" y="95" as="sourcePoint" />
            <mxPoint x="440.6896551724137" y="99.31034482758628" as="targetPoint" />
          </mxGeometry>
        </mxCell>
        <mxCell id="YMydah748aIOiDVq2uRC-70" style="endArrow=block;" edge="1" parent="YMydah748aIOiDVq2uRC-61" source="YMydah748aIOiDVq2uRC-138" target="YMydah748aIOiDVq2uRC-64">
          <mxGeometry relative="1" as="geometry">
            <mxPoint x="479.090909090909" y="99.09090909090901" as="sourcePoint" />
          </mxGeometry>
        </mxCell>
        <mxCell id="YMydah748aIOiDVq2uRC-71" style="endArrow=block;" edge="1" parent="YMydah748aIOiDVq2uRC-61" source="YMydah748aIOiDVq2uRC-64" target="YMydah748aIOiDVq2uRC-126">
          <mxGeometry relative="1" as="geometry" />
        </mxCell>
        <mxCell id="YMydah748aIOiDVq2uRC-72" style="endArrow=block;" edge="1" parent="YMydah748aIOiDVq2uRC-61" source="YMydah748aIOiDVq2uRC-65" target="YMydah748aIOiDVq2uRC-66">
          <mxGeometry relative="1" as="geometry" />
        </mxCell>
        <mxCell id="YMydah748aIOiDVq2uRC-97" style="edgeStyle=orthogonalEdgeStyle;rounded=0;orthogonalLoop=1;jettySize=auto;html=1;" edge="1" parent="YMydah748aIOiDVq2uRC-61" source="YMydah748aIOiDVq2uRC-94" target="YMydah748aIOiDVq2uRC-193">
          <mxGeometry relative="1" as="geometry">
            <mxPoint x="320" y="120" as="targetPoint" />
            <Array as="points">
              <mxPoint x="320" y="190" />
            </Array>
          </mxGeometry>
        </mxCell>
        <mxCell id="YMydah748aIOiDVq2uRC-94" value="não aceita a entrega" style="rounded=1;" vertex="1" parent="YMydah748aIOiDVq2uRC-61">
          <mxGeometry x="500" y="150" width="130" height="50" as="geometry" />
        </mxCell>
        <mxCell id="YMydah748aIOiDVq2uRC-126" value="" style="points=[[0.145,0.145,0],[0.5,0,0],[0.855,0.145,0],[1,0.5,0],[0.855,0.855,0],[0.5,1,0],[0.145,0.855,0],[0,0.5,0]];shape=mxgraph.bpmn.event;html=1;verticalLabelPosition=bottom;labelBackgroundColor=#ffffff;verticalAlign=top;align=center;perimeter=ellipsePerimeter;outlineConnect=0;aspect=fixed;outline=eventNonint;symbol=message;" vertex="1" parent="YMydah748aIOiDVq2uRC-61">
          <mxGeometry x="660" y="70" width="50" height="50" as="geometry" />
        </mxCell>
        <mxCell id="YMydah748aIOiDVq2uRC-138" value="" style="points=[[0.25,0.25,0],[0.5,0,0],[0.75,0.25,0],[1,0.5,0],[0.75,0.75,0],[0.5,1,0],[0.25,0.75,0],[0,0.5,0]];shape=mxgraph.bpmn.gateway2;html=1;verticalLabelPosition=bottom;labelBackgroundColor=#ffffff;verticalAlign=top;align=center;perimeter=rhombusPerimeter;outlineConnect=0;outline=none;symbol=none;gwType=exclusive;rounded=1;strokeColor=default;fontFamily=Helvetica;fontSize=12;fontColor=default;fillColor=default;" vertex="1" parent="YMydah748aIOiDVq2uRC-61">
          <mxGeometry x="430" y="70" width="50" height="50" as="geometry" />
        </mxCell>
        <mxCell id="YMydah748aIOiDVq2uRC-189" style="edgeStyle=orthogonalEdgeStyle;rounded=0;orthogonalLoop=1;jettySize=auto;html=1;fontFamily=Helvetica;fontSize=12;fontColor=default;entryX=0.02;entryY=0.439;entryDx=0;entryDy=0;entryPerimeter=0;dashed=1;" edge="1" parent="YMydah748aIOiDVq2uRC-61" source="YMydah748aIOiDVq2uRC-181" target="YMydah748aIOiDVq2uRC-184">
          <mxGeometry relative="1" as="geometry" />
        </mxCell>
        <mxCell id="YMydah748aIOiDVq2uRC-181" value="" style="points=[[0.145,0.145,0],[0.5,0,0],[0.855,0.145,0],[1,0.5,0],[0.855,0.855,0],[0.5,1,0],[0.145,0.855,0],[0,0.5,0]];shape=mxgraph.bpmn.event;html=1;verticalLabelPosition=bottom;labelBackgroundColor=#ffffff;verticalAlign=top;align=center;perimeter=ellipsePerimeter;outlineConnect=0;aspect=fixed;outline=standard;symbol=message;" vertex="1" parent="YMydah748aIOiDVq2uRC-61">
          <mxGeometry x="1080" y="70" width="50" height="50" as="geometry" />
        </mxCell>
        <mxCell id="YMydah748aIOiDVq2uRC-184" value="Avaliar cliente" style="points=[[0.25,0,0],[0.5,0,0],[0.75,0,0],[1,0.25,0],[1,0.5,0],[1,0.75,0],[0.75,1,0],[0.5,1,0],[0.25,1,0],[0,0.75,0],[0,0.5,0],[0,0.25,0]];shape=mxgraph.bpmn.task2;whiteSpace=wrap;rectStyle=rounded;size=10;html=1;container=1;expand=0;collapsible=0;taskMarker=send;rounded=1;strokeColor=default;align=center;verticalAlign=middle;fontFamily=Helvetica;fontSize=12;fontColor=default;fillColor=default;" vertex="1" parent="YMydah748aIOiDVq2uRC-61">
          <mxGeometry x="1190" y="70" width="120" height="56" as="geometry" />
        </mxCell>
        <mxCell id="YMydah748aIOiDVq2uRC-193" value="Receber notificação" style="points=[[0.25,0,0],[0.5,0,0],[0.75,0,0],[1,0.25,0],[1,0.5,0],[1,0.75,0],[0.75,1,0],[0.5,1,0],[0.25,1,0],[0,0.75,0],[0,0.5,0],[0,0.25,0]];shape=mxgraph.bpmn.task2;whiteSpace=wrap;rectStyle=rounded;size=10;html=1;container=1;expand=0;collapsible=0;taskMarker=send;rounded=1;strokeColor=default;align=center;verticalAlign=middle;fontFamily=Helvetica;fontSize=12;fontColor=default;fillColor=default;" vertex="1" parent="YMydah748aIOiDVq2uRC-61">
          <mxGeometry x="280" y="70" width="120" height="56" as="geometry" />
        </mxCell>
        <mxCell id="YMydah748aIOiDVq2uRC-90" style="edgeStyle=orthogonalEdgeStyle;rounded=0;orthogonalLoop=1;jettySize=auto;html=1;entryX=0.5;entryY=0;entryDx=0;entryDy=0;dashed=1;" edge="1" parent="1" source="YMydah748aIOiDVq2uRC-89" target="YMydah748aIOiDVq2uRC-52">
          <mxGeometry relative="1" as="geometry">
            <Array as="points">
              <mxPoint x="545" y="190" />
              <mxPoint x="320" y="190" />
            </Array>
          </mxGeometry>
        </mxCell>
        <mxCell id="YMydah748aIOiDVq2uRC-93" style="edgeStyle=orthogonalEdgeStyle;rounded=0;orthogonalLoop=1;jettySize=auto;html=1;dashed=1;" edge="1" parent="1" source="YMydah748aIOiDVq2uRC-91" target="YMydah748aIOiDVq2uRC-193">
          <mxGeometry relative="1" as="geometry">
            <mxPoint x="490" y="530" as="targetPoint" />
            <Array as="points">
              <mxPoint x="705" y="430" />
              <mxPoint x="490" y="430" />
            </Array>
          </mxGeometry>
        </mxCell>
        <mxCell id="YMydah748aIOiDVq2uRC-127" style="edgeStyle=orthogonalEdgeStyle;rounded=0;orthogonalLoop=1;jettySize=auto;html=1;exitX=0.5;exitY=0;exitDx=0;exitDy=0;exitPerimeter=0;dashed=1;" edge="1" parent="1" source="YMydah748aIOiDVq2uRC-126" target="YMydah748aIOiDVq2uRC-140">
          <mxGeometry relative="1" as="geometry">
            <mxPoint x="700" y="137.25" as="targetPoint" />
            <mxPoint x="900" y="495" as="sourcePoint" />
            <Array as="points">
              <mxPoint x="855" y="500" />
              <mxPoint x="740" y="500" />
              <mxPoint x="740" y="295" />
              <mxPoint x="700" y="295" />
            </Array>
          </mxGeometry>
        </mxCell>
        <mxCell id="YMydah748aIOiDVq2uRC-170" style="edgeStyle=orthogonalEdgeStyle;rounded=0;orthogonalLoop=1;jettySize=auto;html=1;entryX=0.583;entryY=0.996;entryDx=0;entryDy=0;entryPerimeter=0;fontFamily=Helvetica;fontSize=12;fontColor=default;dashed=1;" edge="1" parent="1" source="YMydah748aIOiDVq2uRC-195" target="YMydah748aIOiDVq2uRC-42">
          <mxGeometry relative="1" as="geometry">
            <mxPoint x="912" y="310" as="sourcePoint" />
            <Array as="points">
              <mxPoint x="912" y="222" />
            </Array>
          </mxGeometry>
        </mxCell>
        <mxCell id="YMydah748aIOiDVq2uRC-172" style="edgeStyle=orthogonalEdgeStyle;rounded=0;orthogonalLoop=1;jettySize=auto;html=1;entryX=0.69;entryY=0.054;entryDx=0;entryDy=0;fontFamily=Helvetica;fontSize=12;fontColor=default;entryPerimeter=0;dashed=1;exitX=0.5;exitY=1;exitDx=0;exitDy=0;exitPerimeter=0;" edge="1" parent="1" source="YMydah748aIOiDVq2uRC-199" target="YMydah748aIOiDVq2uRC-65">
          <mxGeometry relative="1" as="geometry">
            <Array as="points">
              <mxPoint x="1175" y="500" />
              <mxPoint x="993" y="500" />
            </Array>
          </mxGeometry>
        </mxCell>
        <mxCell id="YMydah748aIOiDVq2uRC-173" style="edgeStyle=orthogonalEdgeStyle;rounded=0;orthogonalLoop=1;jettySize=auto;html=1;fontFamily=Helvetica;fontSize=12;fontColor=default;dashed=1;exitX=0.5;exitY=1;exitDx=0;exitDy=0;exitPerimeter=0;" edge="1" parent="1" source="YMydah748aIOiDVq2uRC-199" target="YMydah748aIOiDVq2uRC-55">
          <mxGeometry relative="1" as="geometry" />
        </mxCell>
        <mxCell id="YMydah748aIOiDVq2uRC-178" style="edgeStyle=orthogonalEdgeStyle;rounded=0;orthogonalLoop=1;jettySize=auto;html=1;entryX=0.5;entryY=1;entryDx=0;entryDy=0;fontFamily=Helvetica;fontSize=12;fontColor=default;dashed=1;" edge="1" parent="1" target="YMydah748aIOiDVq2uRC-56">
          <mxGeometry relative="1" as="geometry">
            <mxPoint x="1420" y="530" as="sourcePoint" />
          </mxGeometry>
        </mxCell>
        <mxCell id="YMydah748aIOiDVq2uRC-179" style="edgeStyle=orthogonalEdgeStyle;rounded=0;orthogonalLoop=1;jettySize=auto;html=1;fontFamily=Helvetica;fontSize=12;fontColor=default;dashed=1;exitX=0.593;exitY=0.943;exitDx=0;exitDy=0;exitPerimeter=0;entryX=0.5;entryY=0;entryDx=0;entryDy=0;" edge="1" parent="1" source="YMydah748aIOiDVq2uRC-183" target="YMydah748aIOiDVq2uRC-56">
          <mxGeometry relative="1" as="geometry">
            <mxPoint x="1410" y="138.5" as="sourcePoint" />
            <mxPoint x="1410" y="314" as="targetPoint" />
            <Array as="points">
              <mxPoint x="1420" y="135" />
            </Array>
          </mxGeometry>
        </mxCell>
        <mxCell id="YMydah748aIOiDVq2uRC-182" style="edgeStyle=orthogonalEdgeStyle;rounded=0;orthogonalLoop=1;jettySize=auto;html=1;entryX=0;entryY=0.5;entryDx=0;entryDy=0;fontFamily=Helvetica;fontSize=12;fontColor=default;exitX=0.5;exitY=0;exitDx=0;exitDy=0;exitPerimeter=0;dashed=1;entryPerimeter=0;" edge="1" parent="1" source="YMydah748aIOiDVq2uRC-237" target="YMydah748aIOiDVq2uRC-183">
          <mxGeometry relative="1" as="geometry">
            <mxPoint x="1340" y="113.5" as="targetPoint" />
          </mxGeometry>
        </mxCell>
        <mxCell id="YMydah748aIOiDVq2uRC-192" style="edgeStyle=orthogonalEdgeStyle;rounded=0;orthogonalLoop=1;jettySize=auto;html=1;fontFamily=Helvetica;fontSize=12;fontColor=default;dashed=1;entryX=0.466;entryY=0.952;entryDx=0;entryDy=0;entryPerimeter=0;" edge="1" parent="1" source="YMydah748aIOiDVq2uRC-126" target="YMydah748aIOiDVq2uRC-195">
          <mxGeometry relative="1" as="geometry">
            <mxPoint x="854.5" y="358.5" as="targetPoint" />
          </mxGeometry>
        </mxCell>
        <mxCell id="YMydah748aIOiDVq2uRC-196" style="edgeStyle=orthogonalEdgeStyle;rounded=0;orthogonalLoop=1;jettySize=auto;html=1;entryX=0.157;entryY=0.027;entryDx=0;entryDy=0;entryPerimeter=0;fontFamily=Helvetica;fontSize=12;fontColor=default;dashed=1;" edge="1" parent="1" source="YMydah748aIOiDVq2uRC-140" target="YMydah748aIOiDVq2uRC-195">
          <mxGeometry relative="1" as="geometry" />
        </mxCell>
        <mxCell id="YMydah748aIOiDVq2uRC-253" value="" style="edgeStyle=orthogonalEdgeStyle;rounded=0;orthogonalLoop=1;jettySize=auto;html=1;fontFamily=Helvetica;fontSize=12;fontColor=default;exitX=0.5;exitY=0;exitDx=0;exitDy=0;exitPerimeter=0;dashed=1;" edge="1" parent="1" source="YMydah748aIOiDVq2uRC-181" target="YMydah748aIOiDVq2uRC-237">
          <mxGeometry relative="1" as="geometry">
            <mxPoint x="1275" y="530" as="sourcePoint" />
            <mxPoint x="1350" y="111" as="targetPoint" />
          </mxGeometry>
        </mxCell>
      </root>
    </mxGraphModel>
  </diagram>
</mxfile>
